# xmcd
#
# Track frame offsets:
#	150
#	22136
#	38266
#	57666
#	82181
#	95965
#	114845
#	128925
#	153583
#	167770
#	192626
#	212256
#
# Disc length: 3063 seconds
# Revision: 0
# Processed by: cddbd v1.5.2PL0 Copyright (c) Steve Scherf et al.
# Submitted via: dBpowerAMP V12.0
#
DISCID=a70bf50c
DTITLE=Curtis Saldago - Clean Getaway [Shanachie] (s)
DYEAR=2008
DGENRE=Blues
TTITLE0=Clean Getaway
TTITLE1=Both Sorry Over Nothin'
TTITLE2=Who's Loving Who
TTITLE3=My Confession
TTITLE4=What's Up With That
TTITLE5=Alone
TTITLE6=I Don't Want To Discuss It
TTITLE7=20 Years of B.B. King
TTITLE8=Heartache
TTITLE9=Let's Get Married
TTITLE10=Drivin' In the Drivin' Rain
TTITLE11=Bottle of Red Wine
EXTD=
EXTT0=
EXTT1=
EXTT2=
EXTT3=
EXTT4=
EXTT5=
EXTT6=
EXTT7=
EXTT8=
EXTT9=
EXTT10=
EXTT11=
PLAYORDER=
